# xmcd CD database file generated by OrangeCD 4.3
#
# Track frame offsets:
#	150
#	13365
#	24622
#	41390
#	57247
#	80520
#	96147
#	119262
#	129615
#	140852
#	164022
#	177315
#	195052
#	212142
#	224435
#	243130
#	256937
#	276900
#	297342
#
# Disc length: 4208 seconds
#
# Revision: 2
# Processed by: cddbd v1.4PL0 Copyright (c) Steve Scherf et al.
# Submitted via: OrangeCD 4.3
#
DISCID=1f106e13
DTITLE=Commander Cody and His Lost Planet Airmen - We've Got A Live One Here!
DYEAR=1900
DGENRE=Country
TTITLE0=One Of Those Nights
TTITLE1=Semi Truck
TTITLE2=Smoke! Smoke! Smoke! (That Cigarette)
TTITLE3=Bib Mamou
TTITLE4=San Antonio Rose
TTITLE5=Eighteen Wheels
TTITLE6=Mama Hated Diesels
TTITLE7=Looking At The World Through A Windshield
TTITLE8=My Window Faces South
TTITLE9=Milkcow Blues
TTITLE10=It Should Have Been Me
TTITLE11=Back To Tennessee
TTITLE12=Seeds And Stems
TTITLE13=Rock That Boogie
TTITLE14=Riot In Cell Block #9
TTITLE15=Don't Let Go
TTITLE16=Too Much Fun
TTITLE17=Hot Rod Lincoln
TTITLE18=Lost In The Ozone
EXTD=
EXTT0=
EXTT1=
EXTT2=
EXTT3=
EXTT4=
EXTT5=
EXTT6=
EXTT7=
EXTT8=
EXTT9=
EXTT10=
EXTT11=
EXTT12=
EXTT13=
EXTT14=
EXTT15=
EXTT16=
EXTT17=
EXTT18=
PLAYORDER=
